<svg xmlns="http://www.w3.org/2000/svg" width="174" height="48" viewBox="0 0 174 48">
  <g fill="#212738" fill-rule="evenodd">
    <path fill-rule="nonzero" d="M24,0 L30.0528036,7.25088215e-16 C36.2934348,-4.21297134e-16 38.5564384,0.649779278 40.8379199,1.86992893 C43.1194014,3.09007857 44.9099214,4.88059859 46.1300711,7.16208008 C47.3502207,9.44356156 48,11.7065652 48,17.9471964 L48,24 C48,37.254834 37.254834,48 24,48 L16.6652538,48 C10.870382,48 8.76902145,47.3966335 6.65050293,46.2636374 C4.53198441,45.1306413 2.86935868,43.4680156 1.73636257,41.3494971 C0.603366472,39.2309786 2.60802988e-16,37.129618 -4.48864133e-16,31.3347462 L0,24 C-1.623249e-15,10.745166 10.745166,2.4348735e-15 24,0 Z M11.532,14.84 C11.532,15.448003 11.7559978,15.955998 12.204,16.364 C12.6520022,16.772002 13.2439963,16.976 13.98,16.976 C14.7160037,16.976 15.3079978,16.772002 15.756,16.364 C16.2040022,15.955998 16.428,15.448003 16.428,14.84 C16.428,14.2159969 16.2040022,13.700002 15.756,13.292 C15.3079978,12.883998 14.7160037,12.68 13.98,12.68 C13.2439963,12.68 12.6520022,12.883998 12.204,13.292 C11.7559978,13.700002 11.532,14.2159969 11.532,14.84 Z M16.02,18.608 L11.916,18.608 L11.916,32 L16.02,32 L16.02,18.608 Z M23.94,18.44 C22.8359945,18.44 21.8480044,18.7159972 20.976,19.268 C20.1039956,19.8200028 19.4160025,20.6119948 18.912,21.644 C18.4079975,22.6760052 18.156,23.895993 18.156,25.304 C18.156,26.696007 18.4079975,27.9119948 18.912,28.952 C19.4160025,29.9920052 20.1039956,30.7879972 20.976,31.34 C21.8480044,31.8920028 22.8359945,32.168 23.94,32.168 C24.9640051,32.168 25.8439963,31.9360023 26.58,31.472 C27.3160037,31.0079977 27.8519983,30.376004 28.188,29.576 L28.188,32 L32.292,32 L32.292,14.24 L28.188,14.24 L28.188,21.032 C27.8519983,20.231996 27.3160037,19.6000023 26.58,19.136 C25.8439963,18.6719977 24.9640051,18.44 23.94,18.44 Z M25.26,22.04 C26.1240043,22.04 26.8319972,22.3319971 27.384,22.916 C27.9360028,23.5000029 28.212,24.295995 28.212,25.304 C28.212,26.296005 27.9360028,27.087997 27.384,27.68 C26.8319972,28.272003 26.1240043,28.568 25.26,28.568 C24.3799956,28.568 23.6720027,28.2800029 23.136,27.704 C22.5999973,27.1279971 22.332,26.3280051 22.332,25.304 C22.332,24.2799949 22.5999973,23.4800029 23.136,22.904 C23.6720027,22.3279971 24.3799956,22.04 25.26,22.04 Z"/>
    <path d="M64,18.232 C64,17.8693315 64.1279987,17.5733345 64.384,17.344 C64.6400013,17.1146655 64.9759979,17 65.392,17 C65.8080021,17 66.1439987,17.1146655 66.4,17.344 C66.6560013,17.5733345 66.784,17.8693315 66.784,18.232 C66.784,18.5840018 66.6560013,18.8746655 66.4,19.104 C66.1439987,19.3333345 65.8080021,19.448 65.392,19.448 C64.9759979,19.448 64.6400013,19.3333345 64.384,19.104 C64.1279987,18.8746655 64,18.5840018 64,18.232 Z M66.512,20.776 L66.512,29.64 L64.256,29.64 L64.256,20.776 L66.512,20.776 Z M79.84,20.648 C80.9173387,20.648 81.7679969,20.98133 82.392,21.648 C83.0160031,22.31467 83.328,23.2613272 83.328,24.488 L83.328,29.64 L81.088,29.64 L81.088,24.744 C81.088,24.0613299 80.9146684,23.5360018 80.568,23.168 C80.2213316,22.7999982 79.744003,22.616 79.136,22.616 C78.5066635,22.616 78.0053352,22.8133314 77.632,23.208 C77.2586648,23.6026686 77.072,24.1786629 77.072,24.936 L77.072,29.64 L74.832,29.64 L74.832,24.744 C74.832,24.0613299 74.6586684,23.5360018 74.312,23.168 C73.9653316,22.7999982 73.488003,22.616 72.88,22.616 C72.2506635,22.616 71.7493352,22.8133314 71.376,23.208 C71.0026648,23.6026686 70.816,24.1786629 70.816,24.936 L70.816,29.64 L68.56,29.64 L68.56,20.776 L70.816,20.776 L70.816,22.456 C71.0506678,21.8799971 71.4213308,21.4346682 71.928,21.12 C72.4346692,20.8053318 73.0239966,20.648 73.696,20.648 C74.4106702,20.648 75.0319974,20.818665 75.56,21.16 C76.0880026,21.501335 76.485332,21.9919968 76.752,22.632 C77.0293347,22.023997 77.4426639,21.5413351 77.992,21.184 C78.5413361,20.8266649 79.1573299,20.648 79.84,20.648 Z M87.568,22.472 C87.8986683,21.9066638 88.3359973,21.461335 88.88,21.136 C89.4240027,20.810665 90.0319966,20.648 90.704,20.648 L90.704,23.064 L90.048,23.064 C88.3946584,23.064 87.568,23.8319923 87.568,25.368 L87.568,29.64 L85.312,29.64 L85.312,20.776 L87.568,20.776 L87.568,22.472 Z M91.696,18.232 C91.696,17.8693315 91.8239987,17.5733345 92.08,17.344 C92.3360013,17.1146655 92.6719979,17 93.088,17 C93.5040021,17 93.8399987,17.1146655 94.096,17.344 C94.3520013,17.5733345 94.48,17.8693315 94.48,18.232 C94.48,18.5840018 94.3520013,18.8746655 94.096,19.104 C93.8399987,19.3333345 93.5040021,19.448 93.088,19.448 C92.6719979,19.448 92.3360013,19.3333345 92.08,19.104 C91.8239987,18.8746655 91.696,18.5840018 91.696,18.232 Z M94.208,20.776 L94.208,29.64 L91.952,29.64 L91.952,20.776 L94.208,20.776 Z M100.24,20.664 C101.381339,20.664 102.33333,20.9733302 103.096,21.592 C103.85867,22.2106698 104.335999,23.053328 104.528,24.12 L102.144,24.12 C102.048,23.6506643 101.829335,23.2800014 101.488,23.008 C101.146665,22.7359986 100.714669,22.6 100.192,22.6 C99.5946637,22.6 99.096002,22.8213311 98.696,23.264 C98.295998,23.7066689 98.096,24.3546624 98.096,25.208 C98.096,26.0613376 98.295998,26.7093311 98.696,27.152 C99.096002,27.5946689 99.5946637,27.816 100.192,27.816 C100.714669,27.816 101.146665,27.6800014 101.488,27.408 C101.829335,27.1359986 102.048,26.7653357 102.144,26.296 L104.528,26.296 C104.335999,27.362672 103.85867,28.2053302 103.096,28.824 C102.33333,29.4426698 101.381339,29.752 100.24,29.752 C99.3759957,29.752 98.6080034,29.5680018 97.936,29.2 C97.2639966,28.8319982 96.7413352,28.3066701 96.368,27.624 C95.9946648,26.9413299 95.808,26.1360046 95.808,25.208 C95.808,24.2799954 95.9946648,23.4720034 96.368,22.784 C96.7413352,22.0959966 97.2639966,21.5706685 97.936,21.208 C98.6080034,20.8453315 99.3759957,20.664 100.24,20.664 Z M111.408,20.648 C112.432005,20.648 113.247997,20.9839966 113.856,21.656 C114.464003,22.3280034 114.768,23.2719939 114.768,24.488 L114.768,29.64 L112.528,29.64 L112.528,24.744 C112.528,24.0399965 112.346668,23.4933353 111.984,23.104 C111.621332,22.7146647 111.125336,22.52 110.496,22.52 C109.855997,22.52 109.344002,22.7279979 108.96,23.144 C108.575998,23.5600021 108.384,24.1573294 108.384,24.936 L108.384,29.64 L106.128,29.64 L106.128,17.8 L108.384,17.8 L108.384,22.552 C108.618668,21.9546637 109.005331,21.4880017 109.544,21.152 C110.082669,20.8159983 110.703996,20.648 111.408,20.648 Z M118.624,27.288 L118.624,29.64 L116.192,29.64 L116.192,27.288 L118.624,27.288 Z M123.6,20.664 C124.34667,20.664 124.983997,20.8399982 125.512,21.192 C126.040003,21.5440018 126.421332,22.0186637 126.656,22.616 L126.656,17.8 L128.896,17.8 L128.896,29.64 L126.656,29.64 L126.656,27.784 C126.421332,28.3813363 126.040003,28.8586649 125.512,29.216 C124.983997,29.5733351 124.34667,29.752 123.6,29.752 C122.85333,29.752 122.181336,29.5706685 121.584,29.208 C120.986664,28.8453315 120.520002,28.3200034 120.184,27.632 C119.847998,26.9439966 119.68,26.1360046 119.68,25.208 C119.68,24.2799954 119.847998,23.4720034 120.184,22.784 C120.520002,22.0959966 120.986664,21.5706685 121.584,21.208 C122.181336,20.8453315 122.85333,20.664 123.6,20.664 Z M124.304,22.632 C123.599996,22.632 123.034669,22.861331 122.608,23.32 C122.181331,23.778669 121.968,24.407996 121.968,25.208 C121.968,26.008004 122.181331,26.6346644 122.608,27.088 C123.034669,27.5413356 123.599996,27.768 124.304,27.768 C124.98667,27.768 125.549331,27.5360023 125.992,27.072 C126.434669,26.6079977 126.656,25.9866706 126.656,25.208 C126.656,24.4186627 126.434669,23.7920023 125.992,23.328 C125.549331,22.8639977 124.98667,22.632 124.304,22.632 Z M139.28,24.872 C139.28,25.0960011 139.253334,25.3519986 139.2,25.64 L132.704,25.64 C132.736,26.4293373 132.949331,27.0106648 133.344,27.384 C133.738669,27.7573352 134.22933,27.944 134.816,27.944 C135.338669,27.944 135.773332,27.8160013 136.12,27.56 C136.466668,27.3039987 136.688,26.9573355 136.784,26.52 L139.168,26.52 C139.050666,27.1386698 138.800002,27.6933309 138.416,28.184 C138.031998,28.6746691 137.53867,29.0586653 136.936,29.336 C136.33333,29.6133347 135.664004,29.752 134.928,29.752 C134.063996,29.752 133.296003,29.5680018 132.624,29.2 C131.951997,28.8319982 131.429335,28.3066701 131.056,27.624 C130.682665,26.9413299 130.496,26.1360046 130.496,25.208 C130.496,24.2799954 130.682665,23.4720034 131.056,22.784 C131.429335,22.0959966 131.951997,21.5706685 132.624,21.208 C133.296003,20.8453315 134.063996,20.664 134.928,20.664 C135.802671,20.664 136.567997,20.8453315 137.224,21.208 C137.880003,21.5706685 138.386665,22.0693302 138.744,22.704 C139.101335,23.3386698 139.28,24.0613293 139.28,24.872 Z M137.008,24.648 C137.04,23.922663 136.850669,23.3733352 136.44,23 C136.029331,22.6266648 135.525336,22.44 134.928,22.44 C134.319997,22.44 133.808002,22.6266648 133.392,23 C132.975998,23.3733352 132.746667,23.922663 132.704,24.648 L137.008,24.648 Z M143.936,20.664 C145.013339,20.664 145.87733,20.9359973 146.528,21.48 C147.17867,22.0240027 147.583999,22.7493288 147.744,23.656 L145.632,23.656 C145.546666,23.2293312 145.354668,22.8880013 145.056,22.632 C144.757332,22.3759987 144.368002,22.248 143.888,22.248 C143.503998,22.248 143.205334,22.3386658 142.992,22.52 C142.778666,22.7013342 142.672,22.9466651 142.672,23.256 C142.672,23.5013346 142.757332,23.6986659 142.928,23.848 C143.098668,23.9973341 143.311999,24.1146662 143.568,24.2 C143.824001,24.2853338 144.191998,24.3866661 144.672,24.504 C145.344003,24.6533341 145.890665,24.8106658 146.312,24.976 C146.733335,25.1413342 147.095998,25.4026649 147.4,25.76 C147.704002,26.1173351 147.856,26.599997 147.856,27.208 C147.856,27.9653371 147.560003,28.5786643 146.968,29.048 C146.375997,29.5173357 145.578672,29.752 144.576,29.752 C143.423994,29.752 142.501337,29.4933359 141.808,28.976 C141.114663,28.4586641 140.693334,27.7200048 140.544,26.76 L142.704,26.76 C142.757334,27.1973355 142.949332,27.5413321 143.28,27.792 C143.610668,28.0426679 144.042664,28.168 144.576,28.168 C144.960002,28.168 145.253332,28.0746676 145.456,27.888 C145.658668,27.7013324 145.76,27.4586682 145.76,27.16 C145.76,26.9039987 145.672001,26.6960008 145.496,26.536 C145.319999,26.3759992 145.101335,26.2533338 144.84,26.168 C144.578665,26.0826662 144.208002,25.9813339 143.728,25.864 C143.066663,25.7146659 142.530669,25.5626674 142.12,25.408 C141.709331,25.2533326 141.357335,25.005335 141.064,24.664 C140.770665,24.322665 140.624,23.8533363 140.624,23.256 C140.624,22.4879962 140.91733,21.8640024 141.504,21.384 C142.09067,20.9039976 142.901328,20.664 143.936,20.664 Z M149.28,18.232 C149.28,17.8693315 149.407999,17.5733345 149.664,17.344 C149.920001,17.1146655 150.255998,17 150.672,17 C151.088002,17 151.423999,17.1146655 151.68,17.344 C151.936001,17.5733345 152.064,17.8693315 152.064,18.232 C152.064,18.5840018 151.936001,18.8746655 151.68,19.104 C151.423999,19.3333345 151.088002,19.448 150.672,19.448 C150.255998,19.448 149.920001,19.3333345 149.664,19.104 C149.407999,18.8746655 149.28,18.5840018 149.28,18.232 Z M151.792,20.776 L151.792,29.64 L149.536,29.64 L149.536,20.776 L151.792,20.776 Z M157.312,20.664 C158.05867,20.664 158.698664,20.8399982 159.232,21.192 C159.765336,21.5440018 160.143999,22.0186637 160.368,22.616 L160.368,20.776 L162.608,20.776 L162.608,29.672 C162.608,30.4933374 162.445335,31.2319967 162.12,31.888 C161.794665,32.5440033 161.309337,33.0586648 160.664,33.432 C160.018663,33.8053352 159.237338,33.992 158.32,33.992 C157.039994,33.992 156.005337,33.688003 155.216,33.08 C154.426663,32.471997 153.946668,31.6453386 153.776,30.6 L156,30.6 C156.128001,31.0480022 156.375998,31.3973321 156.744,31.648 C157.112002,31.8986679 157.583997,32.024 158.16,32.024 C158.821337,32.024 159.354665,31.8293353 159.76,31.44 C160.165335,31.0506647 160.368,30.4613373 160.368,29.672 L160.368,27.784 C160.143999,28.3813363 159.765336,28.8586649 159.232,29.216 C158.698664,29.5733351 158.05867,29.752 157.312,29.752 C156.56533,29.752 155.893336,29.5706685 155.296,29.208 C154.698664,28.8453315 154.232002,28.3200034 153.896,27.632 C153.559998,26.9439966 153.392,26.1360046 153.392,25.208 C153.392,24.2799954 153.559998,23.4720034 153.896,22.784 C154.232002,22.0959966 154.698664,21.5706685 155.296,21.208 C155.893336,20.8453315 156.56533,20.664 157.312,20.664 Z M158.016,22.632 C157.311996,22.632 156.746669,22.861331 156.32,23.32 C155.893331,23.778669 155.68,24.407996 155.68,25.208 C155.68,26.008004 155.893331,26.6346644 156.32,27.088 C156.746669,27.5413356 157.311996,27.768 158.016,27.768 C158.69867,27.768 159.261331,27.5360023 159.704,27.072 C160.146669,26.6079977 160.368,25.9866706 160.368,25.208 C160.368,24.4186627 160.146669,23.7920023 159.704,23.328 C159.261331,22.8639977 158.69867,22.632 158.016,22.632 Z M169.936,20.648 C170.960005,20.648 171.775997,20.9839966 172.384,21.656 C172.992003,22.3280034 173.296,23.2719939 173.296,24.488 L173.296,29.64 L171.056,29.64 L171.056,24.744 C171.056,24.0399965 170.874668,23.4933353 170.512,23.104 C170.149332,22.7146647 169.653336,22.52 169.024,22.52 C168.383997,22.52 167.872002,22.7279979 167.488,23.144 C167.103998,23.5600021 166.912,24.1573294 166.912,24.936 L166.912,29.64 L164.656,29.64 L164.656,20.776 L166.912,20.776 L166.912,22.552 C167.146668,21.9546637 167.533331,21.4880017 168.072,21.152 C168.610669,20.8159983 169.231996,20.648 169.936,20.648 Z"/>
  </g>
</svg>
